<?xml version="1.0" encoding="UTF-8"?>
<svg version="1.1" viewBox="0 0 824 888" width="1280" height="1280" xmlns="http://www.w3.org/2000/svg">
<path transform="translate(357,100)" d="m0 0h20l15 3 16 7 14 10 7 7 10 14 7 15 3 13 1 13-1 542-3 19-5 13-8 13-9 10-12 9-14 7-15 4h-29l-12-3-16-8-9-7-11-11-9-15-1-2-17-1-16-4-16-8-14-12-10-13-7-16-3-15-18-1-13-4-10-5-12-11-6-9-4-8-3-11v-18l3-12 7-14 4-5 1-3-9-3-9-6-10-9-7-10-5-11-3-11v-20l3-12 8-16 11-12 7-6h2l-8-16-4-13-1-6v-22l4-16 8-17 9-12 9-9 14-9 8-4-6-14-1-4v-13l4-12 7-11 8-7 8-4h2l-1-12v-10l3-17 5-13 6-11 9-11 10-9 14-8 14-5 13-2v-8l2-11 6-15 6-10 8-10 8-8 14-9 14-6zm7 18-14 2-13 5-11 7-7 6-8 11-6 12-3 11-1 8 7 3 14 5 10 5 11 8 9 9 5 8-1 6-5 4-7-1-11-12-9-7-12-6-12-3h-18l-12 3-14 7-12 11-6 8-6 12-3 12v19l2 4 14 4 7 4 2 3-1 7-6 5-6-2-8-3h-13l-10 5-6 7-3 8-1 8 3 10 4 6 2 2 22 1 14 3 13 5 14 9 11 10 7 10 8 16 4 14 1 8v10l-5 5-8-1-3-6-3-19-5-13-7-11-9-9-11-7-12-5-8-2h-22l-15 4-11 6-12 11-7 9-5 10-4 13-1 8v10l4 16 7 14 2 2 13-2 9 1 4 5-2 8-3 2-15 2-12 5-11 8-7 10-4 9-2 16 2 13 7 14 9 9 10 6 10 3 15 2 5 5-1 6-8 6-9 6-8 10-4 11-1 12 3 13 5 9 9 9 10 5 9 2h10l11-3 6 1 3 3 1 2 1 16 4 15 6 11 9 10 9 7 11 5 7 2h22l13-4 11-6 11-10 6-9 4-8 3-10 2-9 3-4h8l4 3v10l-4 16-8 15-11 13-13 10-15 7 2 5 7 9 10 9 10 6 11 4 5 1h20l12-3 12-6 10-8 7-8 6-10 4-12 1-6v-555l-4-15-5-10-8-10-10-9-16-8-10-3z" fill="#39BB94"/>
<path transform="translate(538,99)" d="m0 0h21l17 4 16 8 13 10 10 11 7 11 6 16 3 15v6l12 2 14 5 11 6 9 7 10 10 8 13 5 12 3 11 1 8v23l11 6 5 4 7 10 4 9 1 6v10l-2 10-4 9v2l14 8 10 8 10 10 9 14 6 15 3 18v11l-4 20-7 16-2 3 13 11 8 10 7 15 2 8v25l-4 12-6 11-11 12-10 8-12 6 7 11 6 13 2 8v19l-4 13-4 8-7 9-9 8-14 7-11 3-18 1-2 12-4 11-5 10-8 10-9 9-13 8-13 5-14 3h-15l-2 6-7 11-10 11-13 9-12 6-15 4h-29l-14-4-16-8-12-11-8-9-7-12-6-18-1-7-1-18 1-539 2-11 4-12 7-14 9-11 7-7 13-9 16-7zm7 17-16 3-12 5-10 7-6 5-9 12-5 11-3 10-1 8v548l2 11 4 12 7 11 11 11 14 8 9 3 5 1h21l14-4 11-6 12-11 7-9v-4l-16-8-11-8-9-10-7-11-6-16-2-12 1-8 5-2h6l3 3 4 19 7 14 8 10 13 9 12 5 14 2 13-1 13-4 11-6 7-6 7-9 6-12 3-14 1-15 3-5 6-1 13 3h10l13-4 11-8 6-8 4-10 1-6v-11l-4-13-6-8-9-8-9-5-3-5 2-6 3-2 16-2 12-5 11-8 9-12 4-11 1-6v-12l-3-13-6-10-8-9-10-6-10-3-14-2-4-4v-6l3-5h14l9 1 6-10 4-11 2-9v-13l-3-16-8-16-7-8-5-5-8-6-10-5-14-4h-21l-12 3-14 7-11 9-9 12-6 14-2 7-2 15-1 5-7 1-6-2-1-2v-13l2-12 4-12 9-16 11-12 10-8 16-8 14-4 6-1 21-1 5-5 3-7v-15l-5-10-8-6-9-3h-8l-16 4-3-1-3-5 1-7 6-4 14-4 3-5v-21l-4-13-6-11-11-12-10-7-10-5-13-3h-15l-13 3-14 7-11 9-7 8-2 2-7-1-3-3-1-6 7-11 10-9 13-8 16-6 9-3v-8l-3-12-8-15-11-12-10-7-10-5-11-3z" fill="#39BB94"/>
</svg>
